<?xml version="1.0" standalone="no"?>
<!DOCTYPE svg PUBLIC "-//W3C//DTD SVG 20010904//EN"
 "http://www.w3.org/TR/2001/REC-SVG-20010904/DTD/svg10.dtd">
<svg version="1.0" xmlns="http://www.w3.org/2000/svg"
 width="800.000000pt" height="800.000000pt" viewBox="0 0 800.000000 800.000000"
 preserveAspectRatio="xMidYMid meet">
<metadata>
Created by potrace 1.11, written by Peter Selinger 2001-2013
</metadata>
<g transform="translate(0.000000,800.000000) scale(0.100000,-0.100000)"
fill="#000000" stroke="none">
<path d="M2467 7593 c-4 -3 -7 -79 -7 -167 0 -89 -4 -167 -8 -173 -6 -9 -57
-13 -177 -15 l-170 -3 0 -1085 0 -1085 168 -3 167 -2 0 -168 c0 -117 4 -172
12 -180 17 -17 349 -17 366 0 9 9 12 263 12 1080 l0 1068 168 0 c117 0 172 4
180 12 8 8 12 63 12 180 l0 168 165 0 165 0 0 -161 c0 -91 4 -169 10 -180 10
-18 23 -19 180 -19 l170 0 0 -161 c0 -91 4 -169 10 -180 10 -18 23 -19 180
-19 l170 0 0 -161 c0 -91 4 -169 10 -180 10 -18 25 -19 360 -19 l350 0 0 -161
c0 -91 4 -169 10 -180 10 -18 25 -19 360 -19 273 0 350 -3 351 -12 1 -7 2 -82
3 -165 l1 -153 -171 0 c-128 0 -174 -3 -182 -13 -17 -20 -16 -697 0 -720 12
-16 31 -17 188 -15 l175 3 5 364 5 364 157 -2 c99 -2 164 2 177 9 20 10 21 19
21 180 l0 170 168 0 c117 0 172 4 180 12 8 8 12 62 12 179 0 135 3 168 14 172
8 3 85 6 170 6 86 0 161 3 166 6 15 10 13 688 -2 703 -8 8 -63 12 -180 12
l-168 0 0 168 c0 117 -4 172 -12 180 -8 8 -63 12 -180 12 l-168 0 0 168 c0
117 -4 172 -12 180 -9 9 -421 12 -1793 12 -980 0 -1785 -3 -1788 -7z"/>
<path d="M3172 6158 c-8 -8 -12 -63 -12 -180 l0 -168 27 -11 c17 -6 152 -9
359 -8 183 1 337 -2 343 -5 7 -5 11 -65 11 -176 0 -148 2 -169 17 -174 9 -4
85 -6 169 -5 84 1 157 -2 163 -5 8 -5 11 -117 11 -367 l0 -359 169 0 c93 0
176 3 185 6 14 5 16 47 16 363 0 264 -3 360 -12 369 -8 8 -63 12 -180 12
l-168 0 0 174 c0 149 -2 175 -16 180 -9 3 -90 6 -180 6 l-164 0 0 174 c0 149
-2 175 -16 180 -9 3 -172 6 -363 6 -257 0 -350 -3 -359 -12z"/>
<path d="M2095 4360 c-11 -5 -95 -9 -187 -9 -127 -1 -168 -4 -168 -13 -1 -7
-1 -86 0 -174 1 -140 -1 -162 -15 -168 -9 -3 -91 -6 -181 -6 l-164 0 0 -174
c0 -149 -2 -175 -16 -180 -9 -3 -89 -6 -179 -6 -144 0 -164 -2 -169 -17 -4 -9
-6 -166 -6 -348 1 -181 1 -336 0 -342 0 -10 -42 -13 -174 -13 l-174 0 -6 -25
c-4 -14 -6 -168 -6 -343 0 -174 0 -325 0 -334 0 -16 -15 -18 -174 -18 -140 0
-175 -3 -179 -14 -11 -28 -7 -1386 3 -1407 10 -18 23 -19 183 -19 l172 0 0
717 0 718 169 3 c155 2 197 9 194 30 0 4 0 161 1 350 l1 342 168 0 c117 0 172
4 180 12 9 9 12 103 12 360 l0 348 168 0 c117 0 172 4 180 12 8 8 12 63 12
180 l0 168 538 -2 537 -3 5 -175 5 -175 175 -5 175 -5 3 -524 c1 -378 -1 -528
-9 -537 -9 -11 -78 -14 -360 -14 l-349 0 0 -168 c0 -117 -4 -172 -12 -180 -8
-8 -63 -12 -180 -12 l-168 0 -2 178 -3 177 -358 3 -357 2 2 -177 3 -178 358
-3 357 -2 0 -168 c0 -117 -4 -172 -12 -180 -8 -8 -63 -12 -180 -12 l-168 0 2
-538 3 -537 175 -5 175 -5 2 -164 c1 -90 4 -170 7 -177 4 -10 44 -14 178 -16
l173 -3 3 -173 2 -172 540 0 540 0 0 175 0 175 168 0 c117 0 172 4 180 12 8 8
12 63 12 180 l0 168 169 0 c130 0 171 3 180 14 8 9 10 205 9 717 l-3 704 -175
5 -175 5 -3 178 -2 177 357 -2 358 -3 5 -895 5 -895 178 -3 177 -2 0 -355 0
-355 180 0 180 0 0 355 0 355 178 -2 177 -3 5 -175 5 -175 175 -5 175 -5 3
-172 2 -173 360 0 360 0 0 175 0 175 164 0 c90 0 171 3 180 6 14 5 16 31 16
180 l0 174 168 0 c92 0 173 4 180 8 10 7 12 121 10 538 l-3 529 -175 5 -175 5
-5 175 -5 175 -175 5 -175 5 -5 715 -5 715 -175 6 c-96 3 -176 6 -177 7 -2 1
-4 80 -5 175 l-3 172 -185 0 -185 0 -2 -345 -2 -345 -166 -3 -165 -2 0 168 c0
117 -4 172 -12 180 -9 9 -184 12 -725 12 -694 0 -713 0 -723 -19 -15 -29 -13
-333 3 -354 11 -16 69 -17 720 -19 l709 -3 1 -163 2 -162 -1067 0 -1068 0 0
348 c0 257 -3 351 -12 360 -8 8 -63 12 -180 12 l-168 0 0 174 c0 149 -2 175
-16 180 -9 3 -90 6 -180 6 l-164 0 0 168 c0 117 -4 172 -12 180 -14 14 -690
16 -723 2z m4323 -1439 c2 -245 -1 -348 -9 -357 -9 -11 -50 -14 -180 -14
l-169 0 0 -174 c0 -149 -2 -175 -16 -180 -9 -3 -90 -6 -180 -6 l-164 0 0 -174
c0 -149 -2 -175 -16 -180 -9 -3 -90 -6 -180 -6 l-164 0 0 -540 0 -540 -180 0
-180 0 0 900 0 900 348 0 c257 0 351 3 360 12 8 8 12 63 12 180 l0 168 168 0
c117 0 172 4 180 12 8 8 12 63 12 180 l0 168 178 -2 177 -3 3 -344z m-2898
-902 c0 -91 4 -169 10 -180 10 -18 23 -19 180 -19 l170 0 0 -525 0 -525 -164
0 c-136 0 -167 -3 -180 -16 -13 -13 -16 -44 -16 -180 l0 -164 -525 0 -525 0 0
168 c0 117 -4 172 -12 180 -8 8 -63 12 -180 12 l-168 0 0 525 0 525 168 0
c117 0 172 4 180 12 8 8 12 63 12 180 l0 168 525 0 525 0 0 -161z m3241 -3 c0
-88 4 -168 10 -178 9 -16 25 -18 179 -18 168 0 170 0 175 -22 3 -13 4 -248 3
-523 l-3 -500 -172 -5 c-94 -3 -175 -9 -180 -13 -4 -5 -9 -83 -10 -174 -1 -91
-4 -167 -6 -170 -2 -2 -158 -5 -346 -6 l-341 -2 0 170 c0 120 -4 175 -12 183
-8 8 -63 12 -180 12 l-168 0 0 525 0 525 178 2 177 3 3 178 2 177 346 -2 345
-3 0 -159z"/>
<path d="M658 744 c-4 -3 -7 -79 -8 -168 0 -126 2 -165 13 -174 8 -7 76 -13
183 -14 l169 -3 -4 -172 -3 -173 186 0 186 0 -2 172 -3 173 -180 3 -181 2 4
146 c2 80 1 161 -2 180 l-7 34 -173 0 c-95 0 -175 -3 -178 -6z"/>
</g>
</svg>
